<svg xmlns="http://www.w3.org/2000/svg" width="192" height="31" fill="none"><path fill="#202020" d="M184.281 23.68c-1.301 0-2.453-.288-3.456-.864a6.386 6.386 0 0 1-2.304-2.4v9.76h-4.288V6.592h3.744v2.88a6.975 6.975 0 0 1 2.432-2.304c.982-.576 2.102-.864 3.36-.864 1.131 0 2.166.224 3.104.672a7.442 7.442 0 0 1 2.496 1.888 8.482 8.482 0 0 1 1.632 2.752c.406 1.024.608 2.133.608 3.328 0 1.621-.32 3.093-.96 4.416-.618 1.323-1.482 2.379-2.592 3.168-1.088.768-2.346 1.152-3.776 1.152Zm-1.44-3.648c.662 0 1.259-.139 1.792-.416a4.34 4.34 0 0 0 1.376-1.12c.406-.49.704-1.035.896-1.632.214-.619.32-1.259.32-1.92 0-.704-.117-1.355-.352-1.952a4.374 4.374 0 0 0-.96-1.568 4.453 4.453 0 0 0-1.504-1.088 4.295 4.295 0 0 0-1.824-.384c-.405 0-.821.075-1.248.224-.405.128-.8.32-1.184.576a5.155 5.155 0 0 0-1.024.896c-.277.341-.48.715-.608 1.12v3.936a6.559 6.559 0 0 0 1.024 1.696c.448.512.96.917 1.536 1.216a4.02 4.02 0 0 0 1.76.416ZM164 23.68c-1.301 0-2.453-.288-3.456-.864a6.386 6.386 0 0 1-2.304-2.4v9.76h-4.288V6.592h3.744v2.88a6.975 6.975 0 0 1 2.432-2.304c.981-.576 2.101-.864 3.36-.864 1.131 0 2.165.224 3.104.672a7.442 7.442 0 0 1 2.496 1.888 8.482 8.482 0 0 1 1.632 2.752c.405 1.024.608 2.133.608 3.328 0 1.621-.32 3.093-.96 4.416-.619 1.323-1.483 2.379-2.592 3.168-1.088.768-2.347 1.152-3.776 1.152Zm-1.44-3.648a3.83 3.83 0 0 0 1.792-.416 4.35 4.35 0 0 0 1.376-1.12c.405-.49.704-1.035.896-1.632a5.86 5.86 0 0 0 .32-1.92c0-.704-.117-1.355-.352-1.952a4.374 4.374 0 0 0-.96-1.568 4.462 4.462 0 0 0-1.504-1.088 4.302 4.302 0 0 0-1.824-.384c-.405 0-.821.075-1.248.224-.405.128-.8.32-1.184.576a5.155 5.155 0 0 0-1.024.896c-.277.341-.48.715-.608 1.12v3.936a6.531 6.531 0 0 0 1.024 1.696c.448.512.96.917 1.536 1.216a4.02 4.02 0 0 0 1.76.416ZM139.044.64h4.48l8.352 22.72h-4.544l-2.112-5.664h-7.936l-2.08 5.664h-4.544L139.044.64Zm5.376 13.952-3.136-9.376-3.264 9.376h6.4Z"/><path fill="#F5F4F4" d="M131.499 10.304c-1.302 0-2.464.256-3.488.768-1.024.49-1.76 1.206-2.208 2.144V23.36h-4.288V6.592h3.936v3.584c.597-1.152 1.354-2.059 2.272-2.72.917-.661 1.888-1.024 2.912-1.088h.544c.128 0 .234.01.32.032v3.904ZM110.135 23.68c-1.344 0-2.56-.224-3.648-.672-1.088-.47-2.016-1.099-2.784-1.888a8.996 8.996 0 0 1-1.792-2.752 9.023 9.023 0 0 1-.608-3.296c0-1.6.352-3.061 1.056-4.384a8.258 8.258 0 0 1 3.072-3.168c1.344-.81 2.922-1.216 4.736-1.216 1.834 0 3.402.405 4.704 1.216a7.874 7.874 0 0 1 2.976 3.168 8.738 8.738 0 0 1 1.056 4.224c0 .256-.011.523-.032.8-.022.256-.043.47-.064.64h-12.96c.085.853.33 1.6.736 2.24.426.64.96 1.13 1.6 1.472.661.32 1.365.48 2.112.48a4.96 4.96 0 0 0 2.4-.608c.768-.427 1.29-.981 1.568-1.664l3.68 1.024a6.893 6.893 0 0 1-1.76 2.272c-.747.661-1.632 1.184-2.656 1.568-1.024.363-2.155.544-3.392.544Zm-4.384-10.048h8.768c-.086-.853-.331-1.59-.736-2.208a3.915 3.915 0 0 0-1.536-1.472 4.273 4.273 0 0 0-2.144-.544 4.21 4.21 0 0 0-2.112.544 4.215 4.215 0 0 0-1.536 1.472c-.384.619-.619 1.355-.704 2.208ZM98.63 23.36h-4.288v-9.408c0-1.301-.256-2.272-.768-2.912-.49-.64-1.173-.96-2.048-.96-.512 0-1.056.15-1.632.448a5.399 5.399 0 0 0-1.568 1.248 4.909 4.909 0 0 0-.992 1.792v9.792h-4.288V0h4.288v9.696A6.606 6.606 0 0 1 89.862 7.2a7.02 7.02 0 0 1 3.488-.896c1.088 0 1.973.192 2.656.576a4.029 4.029 0 0 1 1.6 1.504c.384.619.65 1.323.8 2.112.15.768.224 1.568.224 2.4V23.36Zm-17.817-.864c-.363.15-.8.32-1.312.512a9.482 9.482 0 0 1-1.664.448 8.089 8.089 0 0 1-1.76.192c-.79 0-1.515-.139-2.176-.416a3.56 3.56 0 0 1-1.6-1.312c-.384-.619-.576-1.419-.576-2.4V9.888h-2.208V6.592h2.208v-5.44h4.288v5.44h3.52v3.296h-3.52v8.192c.02.576.18.992.48 1.248.298.256.672.384 1.12.384.448 0 .885-.075 1.312-.224.426-.15.768-.277 1.024-.384l.864 3.392ZM51.394 18.4c0-1.088.298-2.037.896-2.848.618-.832 1.472-1.472 2.56-1.92 1.088-.448 2.336-.672 3.744-.672.704 0 1.418.053 2.144.16.725.107 1.354.277 1.888.512v-.896c0-1.067-.32-1.888-.96-2.464-.62-.576-1.547-.864-2.784-.864-.918 0-1.792.16-2.624.48-.832.32-1.707.79-2.624 1.408L52.258 8.48c1.109-.725 2.24-1.27 3.392-1.632a12.39 12.39 0 0 1 3.68-.544c2.389 0 4.245.597 5.568 1.792 1.344 1.195 2.016 2.901 2.016 5.12v5.344c0 .448.074.768.224.96.17.192.437.31.8.352v3.488c-.384.064-.736.117-1.056.16a5.564 5.564 0 0 1-.768.064c-.854 0-1.504-.192-1.952-.576a2.479 2.479 0 0 1-.8-1.408l-.096-.864a7.332 7.332 0 0 1-2.72 2.176c-1.088.512-2.198.768-3.328.768-1.11 0-2.112-.224-3.008-.672a5.562 5.562 0 0 1-2.08-1.888c-.491-.81-.736-1.717-.736-2.72Zm10.432.864c.234-.256.426-.512.576-.768.149-.256.224-.49.224-.704v-1.696a7.938 7.938 0 0 0-1.664-.48 8.107 8.107 0 0 0-1.696-.192c-1.11 0-2.027.245-2.752.736-.704.47-1.056 1.099-1.056 1.888 0 .427.117.832.352 1.216.234.384.576.693 1.024.928.448.235.98.352 1.6.352.64 0 1.269-.117 1.888-.352.618-.256 1.12-.565 1.504-.928Zm-20.66 4.416c-1.344 0-2.56-.224-3.648-.672-1.088-.47-2.016-1.099-2.784-1.888a9.01 9.01 0 0 1-1.792-2.752 9.038 9.038 0 0 1-.608-3.296c0-1.6.352-3.061 1.056-4.384a8.262 8.262 0 0 1 3.072-3.168c1.344-.81 2.923-1.216 4.736-1.216 1.835 0 3.403.405 4.704 1.216a7.87 7.87 0 0 1 2.976 3.168 8.738 8.738 0 0 1 1.056 4.224c0 .256-.01.523-.032.8-.021.256-.043.47-.064.64h-12.96c.085.853.33 1.6.736 2.24.427.64.96 1.13 1.6 1.472.661.32 1.365.48 2.112.48a4.96 4.96 0 0 0 2.4-.608c.768-.427 1.29-.981 1.568-1.664l3.68 1.024a6.884 6.884 0 0 1-1.76 2.272c-.747.661-1.632 1.184-2.656 1.568-1.024.363-2.155.544-3.392.544Zm-4.384-10.048h8.768c-.085-.853-.33-1.59-.736-2.208a3.915 3.915 0 0 0-1.536-1.472 4.272 4.272 0 0 0-2.144-.544 4.21 4.21 0 0 0-2.112.544 4.22 4.22 0 0 0-1.536 1.472c-.384.619-.619 1.355-.704 2.208ZM10.144.704h4.096l2.592 7.52 2.624-7.52h4.064L19.616 11.04l2.88 7.232L28.928.64h4.8L24.64 23.36h-3.808l-4-9.536-3.968 9.536H9.056L0 .64h4.736L11.2 18.272l2.816-7.232L10.144.704Z"/></svg>