
<svg xmlns="http://www.w3.org/2000/svg">
  <symbol id="chevron" viewBox="0 0 24 24"><path d="M16 3l-9 9 9 9" stroke="currentColor" stroke-width="2" stroke-linecap="round" stroke-linejoin="round"/></symbol>
  <symbol id="reset" viewBox="0 0 24 24"><path d="M4.65 5.951a.92.92 0 011.301-1.3L19.35 18.049a.92.92 0 01-1.301 1.3L4.65 5.951z" fill="currentColor" stroke="currentColor" stroke-width=".5"/><path d="M4.65 19.35a.92.92 0 010-1.301L18.05 4.65a.92.92 0 111.3 1.301L5.953 19.35a.92.92 0 01-1.301 0z" fill="currentColor" stroke="currentColor" stroke-width=".5"/></symbol>
  <symbol id="search" viewBox="0 0 24 24" fill='none'><path d="M11 19a8 8 0 100-16 8 8 0 000 16zM21 21l-4.35-4.35" stroke="currentColor" stroke-width="2" stroke-linecap="round" stroke-linejoin="round"/></symbol>
</svg>
